# xmcd CD database file generated by LOLA_Freedb v0.9beta0
# 
# Track frame offsets:
#      150
#      15789
#      32034
#      43497
#      58151
#      73750
#      88457
#      102656
#      122675
#      133511
# 
# Disc length: 1951 seconds
# 
# Revision: 0 
# Processed by: cddbd v1.5.1PL2 Copyright (c) Steve Scherf et al.
# Submitted via: LOLA_Freedb v0.9beta0
# 
DISCID=91079d0a
DTITLE=Joan Baez - The contemporary ballad book CD 2
DYEAR=1974
DGENRE=
TTITLE0=Long black veil
TTITLE1=Hickory wind
TTITLE2=The Lady came from Baltimore
TTITLE3=I dreamed I saw St. Augustine
TTITLE4=The tramp on the street
TTITLE5=Saigon bride
TTITLE6=Donna Donna
TTITLE7=Song in the blood
TTITLE8=The magic wood
TTITLE9=Babe I'm gonna leave you
EXTD=
EXTT0=
EXTT1=
EXTT2=
EXTT3=
EXTT4=
EXTT5=
EXTT6=
EXTT7=
EXTT8=
EXTT9=
PLAYORDER=
